<?xml version="1.0" encoding="UTF-8" standalone="no"?>
<svg
   xmlns:dc="http://purl.org/dc/elements/1.1/"
   xmlns:cc="http://creativecommons.org/ns#"
   xmlns:rdf="http://www.w3.org/1999/02/22-rdf-syntax-ns#"
   xmlns:svg="http://www.w3.org/2000/svg"
   xmlns="http://www.w3.org/2000/svg"
   style="fill:#000000"
   id="svg14"
   viewBox="0 0 676.18362 676.17579"
   height="676.17578"
   width="676.18359"
   version="1.1">
  <metadata
     id="metadata20">
    <rdf:RDF>
      <cc:Work
         rdf:about="">
        <dc:format>image/svg+xml</dc:format>
        <dc:type
           rdf:resource="http://purl.org/dc/dcmitype/StillImage" />
        <dc:title>astrosat logo</dc:title>
      </cc:Work>
    </rdf:RDF>
  </metadata>
  <defs
     id="defs18" />
  <title
     id="title10">astrosat logo</title>
  <path
     d="M 338.08008,0 C 151.66408,0 0,151.66389 0,338.08789 c 0,182.808 145.86469,332.08841 327.30469,337.81641 3.568,0.184 7.16739,0.27148 10.77539,0.27148 3.608,0 7.2072,-0.0875 10.7832,-0.27148 181.448,-5.728 327.32031,-155.00841 327.32031,-337.81641 -0.008,-95.84 -41.11864,-187.61622 -112.80664,-251.824218 l -0.52929,-0.470703 c -1.296,1.976 -2.76727,3.822703 -4.44727,5.470703 l 0.43164,0.392578 c 70.096,62.856 110.29688,152.66383 110.29688,246.42383 0,152.968 -104.31349,281.9752 -245.52149,319.7832 73.128,-32.8 124.22461,-106.24726 124.22461,-191.44726 0,-115.648 -94.09595,-209.73633 -209.75195,-209.73633 -50.952,0 -100.2167,18.76784 -138.7207,52.83984 l -0.53516,0.47266 c 1.856,1.464 3.52725,3.11154 5.03125,4.93554 l 0.44922,-0.40039 c 19.856,-17.504 42.71058,-30.64804 67.14258,-39.24804 -37.792,22.728 -63.21485,64.01623 -63.21485,111.24023 0,71.6 58.24785,129.83985 129.83985,129.83985 32.224,0 63.21548,-12.06261 87.27148,-33.97461 l 0.51953,-0.47266 c -1.96,-1.344 -3.72737,-2.92044 -5.35937,-4.64844 l -0.44727,0.41602 c -22.656,20.4 -51.76856,31.64062 -81.97656,31.64062 -67.704,0 -122.79297,-55.08878 -122.79297,-122.80078 0,-67.712 55.08897,-122.79883 122.79297,-122.79883 67.712,0 122.80078,55.08683 122.80078,122.79883 0,12.304 -1.83284,24.4968 -5.46484,36.2168 l -0.16797,0.56055 c 2.264,0.776 4.42364,1.75842 6.43164,2.98242 l 0.22461,-0.71094 c 4,-12.64 6.02343,-25.78483 6.02343,-39.04883 0,-47.616 -25.84015,-89.21637 -64.16015,-111.81641 79.616,27.36001 137.01562,102.92908 137.01562,191.70508 0,108.28 -85.33511,197.00727 -192.28711,202.44727 -3.472,0.104 -6.92001,0.26367 -10.41601,0.26367 -3.496,0 -6.95202,-0.15967 -10.41602,-0.26367 -106.944,-5.44 -192.27148,-94.16727 -192.27148,-202.44727 0,-35.216 9.38276,-70.09528 27.13476,-100.86328 l 0.30469,-0.52148 c -2.088,-1.12 -4.03222,-2.4388 -5.82422,-3.9668 l -0.35937,0.62305 c -18.512,31.936 -28.30469,68.16033 -28.30469,104.73633 0,85.2 51.09661,158.64726 124.22461,191.44726 -141.208,-37.8 -245.5195319,-166.8152 -245.5195319,-319.7832 0,-182.528 148.4952519,-331.0410175 331.0312519,-331.0410175 58.68,0 116.45645,15.7137815 167.06445,45.4257815 l 0.52735,0.310547 c 1.07999,-2.12 2.36746,-4.08811 3.85546,-5.91211 l -0.61523,-0.359375 C 457.16811,16.071906 398.09608,0 338.08008,0 Z m 197.03906,50.296875 c -9.61,0 -17.39844,7.788438 -17.39844,17.398437 0,9.61 7.78844,17.400391 17.39844,17.400391 9.61,0 17.40039,-7.790391 17.40039,-17.400391 0,-9.609999 -7.79039,-17.398437 -17.40039,-17.398437 z M 178.40039,318.52734 c -9.61,0 -17.40039,7.79039 -17.40039,17.40039 0,9.61 7.79039,17.40049 17.40039,17.40039 9.61,0 17.40039,-7.79039 17.40039,-17.40039 0,-9.61 -7.79039,-17.40039 -17.40039,-17.40039 z m 159.6875,17.40039 c -27.941,0 -50.5918,22.6508 -50.5918,50.5918 0,27.941 22.6508,50.5918 50.5918,50.5918 27.941,0 50.5918,-22.6508 50.5918,-50.5918 0,-27.941 -22.6508,-50.5918 -50.5918,-50.5918 z m 106.43945,101.20118 c -9.61,0 -17.39843,7.78843 -17.39843,17.39843 0,9.61 7.78843,17.40039 17.39843,17.40039 9.61,0 17.40039,-7.79039 17.40039,-17.40039 0,-9.61 -7.79039,-17.39843 -17.40039,-17.39843 z"
     id="path12" />
</svg>
